/* XPM */
static char *_6205b3161074704b7b5f0bb4639f73aHbn2zPAS2cTb6eZh[] = {
/* columns rows colors chars-per-pixel */
"64 64 151 2 ",
"   c #3B2A04",
".  c #412F03",
"X  c #463105",
"o  c #543D05",
"O  c #583D06",
"+  c #5D4406",
"@  c #654706",
"#  c #674907",
"$  c #684907",
"%  c #6A4709",
"&  c #6A4C09",
"*  c #724E06",
"=  c #724F0A",
"-  c #6F5107",
";  c #745207",
":  c #7A5407",
">  c #7D5A07",
",  c #755309",
"<  c #7B5409",
"1  c #7E590A",
"2  c #835D06",
"3  c #8A5E07",
"4  c #815708",
"5  c #845C08",
"6  c #8C5E09",
"7  c #876205",
"8  c #8C6306",
"9  c #8F6C03",
"0  c #8B6309",
"q  c #926407",
"w  c #9C6707",
"e  c #956B06",
"r  c #9B6C06",
"t  c #936509",
"y  c #996609",
"u  c #946809",
"i  c #9A6C09",
"p  c #9C7105",
"a  c #9C710A",
"s  c #A16F07",
"d  c #A16F0C",
"f  c #A47305",
"g  c #A97603",
"h  c #A77D03",
"j  c #AD7C04",
"k  c #A37209",
"l  c #AA7209",
"z  c #AC7B09",
"x  c #B07707",
"c  c #B37D06",
"v  c #B97D07",
"b  c #B07709",
"n  c #B47C0A",
"m  c #BB7D0A",
"M  c #BE7C10",
"N  c #C27E06",
"B  c #AD8205",
"V  c #B48205",
"C  c #BB8306",
"Z  c #BD8904",
"A  c #BB8309",
"S  c #C28507",
"D  c #C48A05",
"F  c #C98C06",
"G  c #C38608",
"H  c #CE830F",
"J  c #C58A08",
"K  c #CB8B09",
"L  c #D58E06",
"P  c #D28E08",
"I  c #C59104",
"U  c #CD9205",
"Y  c #CE9E06",
"T  c #D39305",
"R  c #DA9505",
"E  c #D49B06",
"W  c #DC9B06",
"Q  c #D79308",
"!  c #D99409",
"~  c #E78B08",
"^  c #E49705",
"/  c #E29B06",
"(  c #EF9E03",
")  c #E19908",
"_  c #E99E08",
"`  c #CBA107",
"'  c #DEA406",
"]  c #D1A903",
"[  c #D6B704",
"{  c #DCB505",
"}  c #D3BC04",
"|  c #DBBC05",
" . c #E3A205",
".. c #EBA405",
"X. c #E4AA04",
"o. c #EBAA05",
"O. c #E6A30D",
"+. c #F3A506",
"@. c #F5AB06",
"#. c #FAAC06",
"$. c #E6B505",
"%. c #EBB305",
"&. c #E5BE04",
"*. c #ECBC05",
"=. c #F2B205",
"-. c #F9B305",
";. c #F4BC05",
":. c #FCBD05",
">. c #D1C603",
",. c #D9C703",
"<. c #D5CB04",
"1. c #DFCB06",
"2. c #DDD404",
"3. c #DCD903",
"4. c #E5C303",
"5. c #ECC304",
"6. c #E4CB05",
"7. c #ECCB04",
"8. c #F5C305",
"9. c #FCC305",
"0. c #F3CB05",
"q. c #FDCA04",
"w. c #E4D305",
"e. c #EBD605",
"r. c #E4DB05",
"t. c #EDDB05",
"y. c #F3D204",
"u. c #FCD404",
"i. c #F2DB04",
"p. c #FEDC04",
"a. c #E7E202",
"s. c #ECE404",
"d. c #EEEA04",
"f. c #F3E504",
"g. c #FCE305",
"h. c #F2ED03",
"j. c #FDED03",
"k. c #F5F302",
"l. c #F4F204",
"z. c #F7F304",
"x. c #F8F602",
"c. c #FAF106",
"v. c #FAF704",
"b. c #FAF801",
"n. c #FCFB02",
"m. c #FCFC00",
"M. c yellow",
"N. c #FAF804",
"B. c #FBFB04",
"V. c #FBF806",
"C. c #FFFF05",
/* pixels */
"M.M.M.M.M.M.M.M.M.M.M.M.C.C.U :.p.W #...A C 2 o l w a :   6 , H M 1 t = n z K P 4 C _ e R D  .p.p.o.C.C.q.M.M.M.M.M.M.M.M.M.M.M.",
"M.M.M.M.M.M.M.M.M.M.M.n.N.u.U c.N.R #.#.V K 8 + z m 3 $ X < & % = 1 , , n t u 3 @ c R 2 T L R -.-.E N.N.j.p.M.M.M.M.M.M.M.M.M.M.",
"M.M.M.M.M.M.n.n.b.b.j.b.v.N.@.f.u.D =.@.C Q P a O.n 4 4 ; y % 5 k t d : 5 O ; 3 @ z J 3 R +...9.-.X.v.N.b.b.b.n.n.M.M.M.M.M.M.M.",
"M.M.M.M.M.b.b.b.b.k.k.y.k.l.Z d.7.c N D e K G u n ; & 0 , < @ , & o @ $ 5 < 1 k i K S 3 R %.W e.*.0.l.k.f.k.x.b.b.b.b.n.M.M.M.M.",
"M.M.M.n.n.b.b.b.b.x.x.x.l.h.I 0.t.F Q / D P K q q : 1 d i 0 l l u # , : t q 0 k z J s 2 / *.U f.i.8.l.l.k.k.x.b.b.x.b.M.n.M.M.M.",
"M.M.M.b.b.n.x.x.x.k.y.f.h.h.h ..*.c T ' C P A 8 q 4 u t 3 , i y q 4 0 , 5 t i q u n r 2  .) V %.=.R d.h.h.k.x.k.k.k.n.b.b.M.M.M.",
"M.M.M.n.b.b.x.k.k.k.y.f.d.d.Z X.w.R F D 7 C C 8 8 > i 3 , : 3 G n A l ; , 0 2 t e J z 8 E D e  .y.V 5.d.f.h.k.h.k.x.k.x.b.M.M.M.",
"M.M.n.b.b.k.k.x.h.h.l.h.d.d.U *.i.Z D ) f S K v 3 i i k q 3 i ! z w ~ b k i i q k ! c c W o.U s.f.r 5.d.y.h.h.h.x.k.k.b.b.M.M.M.",
"M.M.n.b.b.k.k.k.k.d.i.a.3.2.D X.1.D U F 8 z f f i q i f 8 - > 8 o . * 3 8 3 8 J z v e r Y ) p | r.2 ' a.a.a.a.l.h.h.x.n.x.b.M.M.",
"M.M.n.x.x.x.k.l.d.j.h.4.t.s.T 5.t.+.A D f V A c Q S n v N s A C 2 e K G G x v P f c c p R @.C 0.g...f.j.a.7.c.a.h.k.k.k.k.b.M.M.",
"M.p.n.k.k.k.h.h.a.7.n.5.7.g...6.w...@. .C D C p S c z z v C ) _ J F Q P ! P S J c c S C R ..^ e.g.o.2.2.%.n.d.e.h.y.y.x.k.j.M.M.",
"q.j.N.f.k.h.t.7.a.a.5.s.2.[ V ' { c U ' C c i f A 8 2 e 8 7 2 8 f r C r C c 8 V e f C C V B T | <.{ >.} f.*.&.a.h.t.f.x.i.b.M.M.",
"C.b.v.l.k.d.s.d.d.j.a.,.j.7.C ;.-.T F W c R T ` ) L W / T Q T W ..@.#.U ) ' K ) D S / E R W *.y.7.C o.c.<.*.d.r.d.d.h.l.k.v.N.C.",
"C.N.v.l.l.d.5.5. .f.r.2.*.c.V Z -.o.'  .f ..@. .%.C ) *.o.+.W T :.-.;.E R T K K U A @.D D E R ..8 2 N.4.] g.f.r.f.d.d.k.l.N.u.M.",
"..F R ;.;.' Z f 9 o.X.| U B 9.B E R T %.T  .C e U 8 j K R ..W W R T C Z U V R C D +...A T %. ...T q.f j j ..E I E Z p V Z @.U U ",
"g.:.:.*.t.%.7.t.r.g.g.<.7.B { j.;.=.=.y.[ e.0.| r.^ =.h.t.q.:.p.p.v.0.7.t.$.w.i.6.e.w.{ -.9.F ( j.8 g 8.W 6.&.' %.X...0.s.f.c.9.",
"p.:.q.e.f.=.^ r.| 0.e.[ y.=.=.;.j.{ B 7.<.g.g.r.t.7.%.t.*.:.:.g.9.c.f.s.0...X.%.' &.6.W 8.g 8 j.( F 9.-.{ w.e.6.i.w.$.t.7.0.v.p.",
"W W ..Q K j 8 U e C  .T %.T Q E B 9.B U | X.o.9 f Z ' ;.;.R F ..U U @.Z V p Z E I E ..j j f q.T .. .%.T A ..+.D C R V U Z C T R ",
"T W +.o.*.) C %. .@...f  .' o.-.Z V c.*.2.r.f. .5.5.d.l.l.v.N.C.M.u.N.l.l.d.d.f.r.f.g.] 4.N.2 8 ..R E D D @.A U K K T R E ;.-.:.",
"W T Q T / W L ) ` T R c W F T -.;.C 7.j.,.a.j.d.d.s.d.k.l.v.b.C.C.N.v.k.l.h.d.d.r.d.*.<.c.o.C 7.y.*.W R E / S D ) K ' ) U #.@...",
"8 2 7 8 e 2 8 A f i c C ' U V { ' V [ 2.s.5.a.a.7.t.h.k.f.N.j.q.M.M.b.i.x.f.t.h.a.&.*.h.} >.{ <.| T B V C C f e V 8 c C r C r f ",
"_ ) C v z z c S p C D C  .@...w.6...g.7.5.n.7.a.h.h.k.k.k.n.p.M.M.M.j.k.x.y.y.h.e.f.n.%.r.2.o.g.e.^ ..R C G c c J S P ! P Q F J ",
"C A s N v n S Q c A V f D A +.t.5.T s.t.4.h.j.d.l.k.x.x.x.n.M.M.M.M.b.k.k.k.k.h.a.c.7.a.j.f...g.0.C @.R p c c f P v x G G K e 2 ",
"8 > - 8 f i q i f f z 8 F U D 1.X.D 2.3.a.i.d.k.k.k.k.b.b.n.M.M.M.M.b.x.n.x.h.h.l.a.a.a.a.' 2 r.| p ) Y r e v z J 8 3 8 3 * . o ",
"! i 3 q k i i 3 v K S f ) D Z i.*.U d.d.h.l.h.h.x.k.k.b.b.n.M.M.M.M.n.b.b.k.k.x.h.h.h.y.d.5.r f.a.U o.W c v ! k q i i k b ~ w z ",
"G 3 : , 3 i > 8 8 C C 7 D F R w.X.Z d.h.f.y.k.k.k.x.b.b.n.M.M.M.M.M.M.b.x.k.x.k.h.k.h.f.d.5.V y. .e D E 8 c J e t 2 0 , ; l A n ",
"y i , 3 t u 4 q 8 A P C ' T c *...h h.h.f.y.k.x.x.x.n.b.b.M.M.M.M.M.M.b.b.n.k.k.k.x.k.h.h.d.R =.%.V )  .2 r n u q i t 5 , 0 4 q ",
"l l 0 i d 1 : q q K P D / Q F t.0.I h.l.x.x.x.b.b.b.b.n.n.M.M.M.M.M.M.n.M.b.x.b.b.x.k.k.l.l.8.i.f.U *./ 2 s J z k 0 q t : , # u ",
", @ < , 0 * ; n u G K e D N c 7.d.Z l.k.y.k.k.b.b.b.b.M.M.M.M.M.M.M.M.M.n.b.b.b.b.x.k.f.k.l.0.*.e.W %.R 3 S K i k 1 < 5 $ @ o & ",
"5 % y ; 4 4 n O.a P Q C @.=.D u.f.@.v.v.b.j.b.b.M.M.M.M.M.M.M.M.M.M.M.M.M.M.M.n.n.b.b.b.N.v.X.-.9...+.R 3 J z @ 3 ; O 5 : d t k ",
"% & < X $ 3 m z + 8 K V #.#.R N.c.U u.N.n.n.n.M.M.M.M.M.M.M.M.M.M.M.M.M.M.M.M.M.M.M.p.j.N.N.E -.-.R L T 2 R c @ 6 u t n , , 1 = ",
"H , 6   : a w l o 2 C A ..#.W p.:.U C.C.M.M.M.M.M.M.M.M.M.M.M.M.M.M.M.M.M.M.M.M.M.M.M.q.C.C.o.p.p. .D R e _ C 4 P K z n = t 1 M ",
"M 1 t = n z K P 4 C _ e R D  .p.p.o.C.C.q.M.M.M.M.M.M.M.M.M.M.M.M.M.M.M.M.M.M.M.M.M.M.C.C.C.U 9.p.W #...A C 2 o l w a :   6 , H ",
"= 1 , , n t q 3 @ c R 2 T L R -.-.E N.N.j.p.M.M.M.M.M.M.M.M.M.M.M.M.M.M.M.M.M.M.M.M.M.n.N.u.U c.N.R #.#.V K 8 + z m 3 $ X < & % ",
"k t d : 5 O ; 3 @ z J 3 R +...9.-.X.v.N.b.b.b.n.n.M.M.M.M.M.M.M.M.M.M.M.M.M.M.M.b.b.j.b.v.N.@.f.u.D =.@.C Q P a O.n 4 4 ; y % 5 ",
"& o @ $ 5 < 1 k i K S 3 R %.W e.*.0.l.k.f.k.x.b.b.b.b.n.M.M.M.M.M.M.M.M.M.b.b.b.k.k.k.y.k.l.Z d.7.c N D e K G u n ; * 0 , < @ , ",
"u # , : t q 0 k z J s 2 / *.U f.t.8.l.l.k.k.x.b.b.x.b.M.n.M.M.M.M.M.M.n.n.b.b.b.x.x.x.x.l.h.I 0.t.F Q / D P K q q : 1 d i 0 l l ",
"q 4 0 , 5 t i q u n r 2  .) V %.=.R d.h.k.k.x.k.k.k.n.b.b.M.M.M.M.M.M.b.b.n.x.x.x.k.y.f.h.h.h ..*.c T ' C P A 8 q 4 u t 3 , i y ",
"n A l ; , 0 2 t e J c 8 E D e  .y.V 5.d.f.h.k.h.k.x.k.x.b.M.M.M.M.M.n.n.b.b.x.k.k.h.y.f.h.d.Z X.w.R F D 7 C C 8 8 > i 3 , : 3 G ",
"z w ~ b k i i q k ! v c W o.U s.f.r 5.d.y.h.h.h.x.k.k.b.b.M.M.M.M.M.n.b.b.k.k.x.h.h.l.h.d.d.U *.i.Z D ) s S K v 3 i i k q 3 i ! ",
"o . * 3 8 3 8 J z v e r Y ) p | r.2 ' a.a.a.a.l.h.h.x.n.x.b.M.M.M.M.n.b.b.k.k.k.k.d.i.a.3.2.D X.1.D U F 8 z f f i q i f 8 - > 8 ",
"2 e K G G x v P f c c p R @.C 0.g...f.j.a.7.c.a.h.k.k.k.k.b.M.M.M.M.n.x.x.x.k.l.d.j.h.4.t.s.T 5.t.+.A D f V A c Q S n v N f A C ",
"J F Q P ! P S J c c G C R ..^ e.g.X.2.r.%.n.d.e.h.y.y.x.k.j.M.M.M.p.n.k.k.k.h.h.a.7.n.5.7.g...6.w...@. .C D C p S c z z v C ) _ ",
"f r C r C c 8 V e f C C V B T | <.{ >.} f.*.&.a.h.t.f.v.i.N.M.M.q.j.N.f.k.h.t.7.a.a.5.s.2.[ V ' { V U ' C c i f A 8 2 e 8 7 2 8 ",
"..@.#.U ) ' K ) D S / E R W *.y.7.C o.c.<.*.d.r.d.d.h.l.k.v.N.C.C.b.v.l.k.d.s.d.d.j.a.,.j.7.C ;.-.T F W c R T ` ) L W / T Q T W ",
":.-.;.E R T K K U A @.D D E R ..8 2 N.4.] g.f.r.f.d.d.l.l.N.u.M.C.N.v.l.l.d.5.5. .f.r.2.*.c.V Z -.o.'  .f ..@. .%.C ) *.o.+.W T ",
"R T C Z U V R C D +...A T %. ...T q.f j j ..E I E Z p V Z @.U U ..F R ;.;.' Z f 9 o.X.| U B 9.B E R T %.T  .C e U 8 j K Q ..W W ",
"p.N.0.7.t.$.w.i.6.e.w.{ -.9.F ( j.8 g 8.W 6.&.' %.X...0.s.f.c.9.g.:.:.*.t.%.7.t.r.g.g.<.7.B { j.;.=.=.y.[ e.0.| r.^ =.f.e.q.:.p.",
"9.c.f.s.0...X.%.' &.6.W 8.g 8 j.( F 9.-.{ w.e.6.i.w.$.t.7.0.v.p.p.:.q.e.f.=.^ r.| 0.e.[ y.=.=.;.j.{ B 7.<.g.g.r.t.7.%.t.*.:.9.g.",
"U U @.Z V p Z E I E ..j j f q.T .. .%.T A ..+.D C R V U Z C T R W W ..Q K j 8 U e C  .T %.T R E B 9.B U | X.o.9 f Z ' ;.;.R F ..",
"M.u.N.l.l.d.d.f.r.f.g.] 4.N.2 8 ..R E D D @.A U K K T R E ;.-.:.T W +.o.*.) C %. .@...f  .' o.-.Z V c.*.2.r.f. .5.5.d.l.l.v.N.C.",
"C.N.v.k.l.h.d.d.r.d.*.<.c.o.C 7.y.*.W R E / S D ) K ' ) U #.@...W T Q T / W L / ` T R c W F T -.;.C 7.j.,.a.j.d.d.s.d.k.l.v.b.C.",
"M.M.b.i.x.f.t.h.a.&.*.f.} >.{ <.| T B V C C f e V 8 c C r C r f 8 2 7 8 e 2 8 A f i c C ' U V { ' V [ 2.s.5.a.a.7.t.h.k.f.N.j.q.",
"M.M.j.k.x.y.y.h.e.d.n.%.r.2.o.g.e.^ ..R C G c c J S P ! P Q F J _ ) C v z z c S p C D C  .@...w.6...g.7.5.n.7.a.h.h.k.k.k.n.p.M.",
"M.M.b.k.k.k.k.h.a.c.7.a.j.f...g.0.C @.R p c c f P v x G G K e 2 C A s N v n S Q c A V f D A +.t.5.T f.t.4.h.j.d.l.k.x.x.x.n.M.M.",
"M.M.b.x.n.x.h.h.l.a.a.a.a.' 2 r.| p ) Y r e v z J q 3 8 3 * . o 8 > - 8 f i q i f f z 8 F U D 1.X.D 2.3.a.i.d.h.k.k.k.b.b.n.M.M.",
"M.M.M.b.b.k.k.x.h.h.h.y.d.5.r f.s.U o.W c v ! k q i i k b ~ y z ! i 3 q k i i 3 v K S f ) D Z i.*.U d.d.h.l.h.h.x.k.k.b.b.n.M.M.",
"M.M.b.b.x.k.x.k.h.k.h.f.d.5.V y. .e D E 8 c J e t 2 0 , ; l A n G 3 : , 3 i > 8 8 C C 7 D F R w.X.Z d.h.f.y.k.k.k.x.b.b.n.M.M.M.",
"M.M.M.b.b.n.k.k.k.x.k.h.h.d.R =.%.V )  .2 r n u q i t 5 , 0 4 q y i , 3 t u 4 q 8 A P C ' T c *. .h h.h.f.y.k.x.x.x.n.b.b.M.M.M.",
"M.M.M.n.M.b.x.b.b.x.k.k.l.l.8.i.f.U *./ 2 s J z k 0 q t : , # u l l 0 i d 1 : q q K P D / Q F t.0.I h.l.x.x.x.b.b.b.b.n.n.M.M.M.",
"M.M.M.M.n.b.b.b.b.x.k.f.k.l.0.*.e.W %.R 3 S K i k 1 < 5 $ @ o & , @ < , 0 * ; n q G K e D N c 7.d.Z l.k.y.k.k.b.b.b.b.M.M.M.M.M.",
"M.M.M.M.M.M.M.b.n.b.b.b.N.v.X.-.9...+.R 3 J z @ 3 ; O 5 : d t k 5 # y ; 4 4 n O.a P Q C @.=.D u.f.@.N.v.b.j.b.b.M.M.M.M.M.M.M.M.",
"M.M.M.M.M.M.M.M.M.M.p.j.N.N.E -.-.R L T 2 R c @ 3 u t n , , 1 = % & < X $ 3 m z + 8 K V #.#.R N.c.U u.N.n.M.M.M.M.M.M.M.M.M.M.M.",
"M.M.M.M.M.M.M.M.M.M.M.q.C.C.o.p.p. .D R e _ C 4 P K z n = t 1 M H , 6   : a w l o 2 C A ..#.W p.:.U C.C.M.M.M.M.M.M.M.M.M.M.M.M."
};
