/* XPM */
static char *d1c5a81776a442d798e129923b84b103OBRXlovQ0YJijrdn[] = {
/* columns rows colors chars-per-pixel */
"64 64 137 2 ",
"   c #3D2E1B",
".  c #3E311D",
"X  c #412F1C",
"o  c #492F1D",
"O  c #45321E",
"+  c #4C321E",
"@  c #52331F",
"#  c #5C351F",
"$  c #463220",
"%  c #4C3520",
"&  c #543521",
"*  c #5A3621",
"=  c #553922",
"-  c #5C3923",
";  c #623722",
":  c #633A24",
">  c #6B3C25",
",  c #723D26",
"<  c #733F28",
"1  c #644327",
"2  c #644B2C",
"3  c #6C4E2E",
"4  c #7D4429",
"5  c #704F2F",
"6  c #784C2A",
"7  c #71522E",
"8  c #6B4F31",
"9  c #6E5131",
"0  c #6F5834",
"q  c #725433",
"w  c #7B5734",
"e  c #765834",
"r  c #7C5A36",
"t  c #775939",
"y  c #7D5C39",
"u  c #7C6036",
"i  c #7E613A",
"p  c #815D37",
"a  c #825D3A",
"s  c #8A5E3C",
"d  c #84623C",
"f  c #8A643D",
"g  c #87683E",
"h  c #8A693F",
"j  c #92653E",
"k  c #916B3F",
"l  c #876541",
"z  c #8A6540",
"x  c #856A41",
"c  c #8C6A42",
"v  c #936C43",
"b  c #996E46",
"n  c #8D7247",
"m  c #957245",
"M  c #9A7345",
"N  c #9C7947",
"B  c #947549",
"V  c #9A7549",
"C  c #96794B",
"Z  c #9D7A4B",
"A  c #9E7D51",
"S  c #A1764A",
"D  c #A27C4D",
"F  c #A37D51",
"G  c #A87E50",
"H  c #9B804E",
"J  c #9F8051",
"K  c #A2814E",
"L  c #AC824C",
"P  c #B3864F",
"I  c #BB874F",
"U  c #B7884C",
"Y  c #B88A4F",
"T  c #A58352",
"R  c #A98655",
"E  c #A58955",
"W  c #A68458",
"Q  c #A98559",
"!  c #A78A58",
"~  c #AA8B5A",
"^  c #B48A52",
"/  c #BC8D54",
"(  c #BE8F58",
")  c #AD915B",
"_  c #BE9254",
"`  c #BF925A",
"'  c #BF985A",
"]  c #C08E54",
"[  c #C19256",
"{  c #C1955B",
"}  c #C39A5D",
"|  c #C5A15F",
" . c #C39661",
".. c #C59D62",
"X. c #C59C64",
"o. c #C59F64",
"O. c #C79F64",
"+. c #C89E66",
"@. c #C3A061",
"#. c #C7A262",
"$. c #C5A562",
"%. c #C5A064",
"&. c #C7A365",
"*. c #C5A564",
"=. c #C8A364",
"-. c #C8A667",
";. c #C7A862",
":. c #C7A866",
">. c #C9A967",
",. c #C7A569",
"<. c #C7A668",
"1. c #C8A668",
"2. c #C9A46A",
"3. c #C7A86A",
"4. c #C9A868",
"5. c #C8AB6B",
"6. c #CCAE6B",
"7. c #CAA96D",
"8. c #C9AB6C",
"9. c #C9AD6C",
"0. c #CBAC6D",
"q. c #CAAE6E",
"w. c #CBB16E",
"e. c #CBB46E",
"r. c #CCB46E",
"t. c #CBAD70",
"y. c #CAAC71",
"u. c #CBB570",
"i. c #CDB471",
"p. c #CCB472",
"a. c #CCB573",
"s. c #CDB274",
"d. c #CDB574",
"f. c #CEBA75",
"g. c #CFBE79",
"h. c #D1B877",
"j. c #D0BD78",
/* pixels */
"%       % +   . : : = % = : 6 6 > %   O - : - & .       O - - - O O & ; : : : : - - - - ; : > > * * * * @ + o X   O + & * - - - ",
"c g y d c d i z l g d d c m m c d t e e e t y d d y e e a l z c d p y r y f c v b m b k v v f d r e 7 q w r r r d h v b v c c c ",
"T K Z Z T N C T J T T Z Z Z Z Z V m m C Z A Z A N D D F F Z V V Z M v f h m m m m v m m V D D D D N m v v v k v C K T K C m N Z ",
"5.&.} } *.} Y / } $.;.#.} } ' ` / ^ ` o.3.<.o.{ ( { } =.1.o.} } } } } ..#.&.&.o.o.&.5.5.q.a.a.w.q.d.s.5.{ / / [ } | #.} ' } *.w.",
"a.6.#.&.-.{ U P _ $.a.f.w.r.q.*.' ` o.1.q.y.<.&.} o.&.-.5.7.y.q.o.{ [ { } =.=.} ` { o.} { _ / ` &.7.7.#.` / / ` } } } } ' } <.e.",
"Z D C v h f d k k m V Z S Z D Z v c c m Z R T D N N Z N V V V N Z S S D F F D V v m V m k v V Z D V v h m m M m V C N Z C M m m ",
"z v f r a r a f d d a e e a f f d y e t l b b z f h c f p r r p v j f a a a a a a f d e q q r g d r e e z v m c f f f c c z d a ",
"@ +     @ * & & & @ + + + * - - & - * & & * * & & - - @ + @ # : > ; - * @ @ + & - ; - & & * * - - * & = - - = & + O % - - - & + ",
"    . O & = : : & & + + O + * * O + & * & + + + + + + O O + @ @ O + @ +       + & * +     O & & % + O + + O .     . % = = O . . ",
"g x c c c g c d i i d d d i d d i d f d d d d a r y a f h j s p p a f d d d f f d a y a y e q y a d d a r e e y d g g d i d g d ",
"E ~ ) ) ! Z B m h h k v m m m m m K E T D Z N M v v M V F G G D M M N S D D D N b v v V Z m v V Z F T D m v V T T Z B c c m C Z ",
"f.f.d.d.w.q.q.q.5.*.#.&.1.7.5.5.*.a.f.f.a.5.&.#.*.5.:.#.o.o...} { } -.q.q.q.1.$.} } ..o.7.5.1.q.a.y.1.1.1.7.y.5.3.q.7.3.5.u.g.g.",
"5.w.f.g.j.f.q.5.5.5.<.&.&.&.7.y.5.:.5.q.5.&.&.-.q.a.u.w.5.1.=.} } { } } } o.=.5.5.q.5.=.7.7.1.o.#.} ' { { { { { } *.a.q.q.q.q.5.",
"N Z T Q R F V m m V D C m m V Z Z C C Z Z N Z T ) ) ) E T Z m k b M N M M v M N V V M V V m M N Z N V V V V M V m Z T D C D Z Z ",
"f d r e e y a d d d f g d d d f h c c v v c c b V B m v b b b b v v v b v f a a f f d r e q e l z e q e d z r 8 9 e y y a f c z ",
"+ + @ * ; - - * & O   . @ * * @ - > > : : : : > : : : : > > > < < > : > > : : ; ; : : * + + & : ; - & @ & & & + + & & @ + & * @ ",
"* - ; : - - * - - @ @ + @ * - # & * - - & % % % & & & + O O + * - - - & & + o o + & ; : - - : ; - - - : : > : - * * - - * @ - : ",
"f c v d e e a h v h d y r p f f d d d d y y a y r p d a p y d d g d d y r a a p f d f d p d d d y u d h m N m d d f h v f p d f ",
"T D N M v v M M b v k k k k v m M m v h d d i i v v c c h k v m C N D T F D V b M V Z N M M m k m N Z Z C M m m N N D N m v N T ",
"6.5.-.-.=.} { [ { { ..o.=.1...{ { } o.o.o.o.} ` ` ] ( ' } ` P L / { &.q.q.#.{ { }  .o.o.} { [ ] } <.7.3.<.<.-.-.#.| } / P L ] #.",
"_ } $.-.$.} } } } ..=.=.1.+.o.} { { o.&.5.5.&.o.o.{ / { &.1.1.<.} { } -.1.#.#.1.1. ./ I / / / { { o.o. .` { o.&.5.-.#.o.} [ { } ",
"k v N D F T L D M V D S M v m V D Z V m V F A m c f v D Q W F Z m v m N Z M m M V v a p f v M Z A F Z m v z c m D D Z V N M M M ",
"v b v v v v h f f h h f r e q e i r q 8 q d l y t 9 9 t y y r r q 8 q y a w q e y t q t d c v b v z d a y y a s c c f f f d d c ",
"; , < , : * * ; * @ + + + * - - & * & O + & @ O & $ $ * * & % % +   X * - * - ; %       % - - - - : : * + O O + & = - ; * + + @ ",
", : - & @ @ & & & + O . O & - > : - - & O . O % * & & - - - = - - % * > > = = : = = % . O & * % O % - : = + O O % % + & * ; > , ",
"w e e a a d d a a e q 3 9 q a z f y q 3 2 2 9 q a f c c B C B n d q 0 d h d d f c m n x d f f g d c c c g i e e r d d f g f z z ",
"M M M V V N N Z D V m v k v C R F v d y g v V Z m M m m Z E E H m m m Z K Z V C C Z C m m v v v N T R D m f d d h m M M m v f f ",
"q.=.o.#.=.-.7.y.y.7.5.1...} o.y.a.<.} { #.<.*.1.*.<.$.| q.g.f.@./ } | o./ P / } #.{ / [ { { ] ] { ..+...{ ] / I / { } *.q.q.q.3.",
"5.} } o.=.-.1.5.<.o.o.<.5.1.7.q.5.&.&.7.q.7.<.<.*.7.>.:.w.h.q.' { o.-.} / / } 5.1.} { } o.o.} { [ ] [ } #.-.=.} } } &.7.u.u.5.&.",
"D D V V Z V m v h d d v V Z Z V V m V A T T Q ~ ~ Q D N D T F N M Z D F F D D N m Z F N V M V C v m Z D Z D T T m m m V C Z m v ",
"a f f v M V v d d r t y d z f d z l d d d d z v c c d e e r p w 5 9 e d a e q q p v b z i d x x i i g g d g g g d d d d d i e 3 ",
"+ & : < 4 < : % X     O % * : : : : * - - - - : - - ; : ; @ o         X       @ > , : % % = 1 : - .   . - - %       . O O % + o ",
"O O & ; : : : : - - - - ; : > > * * * * @ + o X   O + & * - - - %       % +   . : : = % = : 6 6 > %   O - : - & .       O - - - ",
"d p y r y f c v v m b k v v f d r e 7 q w r r r d h v b v c c c c g y d c d i z l g d d c m m c d t e e e t y d d y e e a l z c ",
"Z M v f h m m m m v m m V D D D D N m v v v k v C K T K C m N Z T K Z Z T N C T J T T Z Z Z Z Z V m m C Z A Z A N D D D F Z V V ",
"} } } o.#.&.&.o.o.&.5.5.q.a.a.w.q.d.s.5.{ / / [ } | #.} ' } *.w.5.&.} } *.} Y / } $.;.@.} ' ' ` / ^ ` o.3.<.o.{ / { } =.1.o.} } ",
"o.{ [ { } &.&.} ` { o.} { _ / ` &.7.7.#.` / / ` } } } } ' } <.e.a.6.#.&.-.{ U P _ $.u.f.w.r.q.*.{ ` o.1.q.y.<.&.} o.&.-.5.7.y.q.",
"Z S S D F F D V v m V m k k V Z D V v h m m M m V C N Z C M m m Z D C v k f d k k m V Z S Z D Z v c c m Z R T D N N Z N V V V N ",
"v j f a a a a a a f d e q q y g d r e e z v m c f f f c c z d a z v f r a r a f d d a e e d f f d y e t l b b z f h c f p r r p ",
"> ; - * @ @ + & - ; - & & * * - - * & = - - = & + O % - - - & + @ +     @ * & & & @ + + + * - - & - * & & * * & & - - @ + @ # : ",
"O + @ +       + & * +     O & & % + O + + O .     . % = = O . .     . O & = : : & & + + O + * * O + & * & + + + + + + O O + @ @ ",
"a a f d d d f f d a y a y e q y a d d a r e e y g g g d i d g d g x c c c g c d i i d d d i d d i d f d d d d a e y a d h j s p ",
"M M N S D D D N b v v V Z m v V Z F T D m v V T T Z m c c m C Z E ~ ) ) ! Z B m h h k v m m m m m K E T D Z N M v v m V F G G D ",
"{ } -.q.q.q.1.$.} } ..o.7.5.1.5.a.y.1.1.1.7.y.5.3.q.q.3.5.u.g.g.f.f.d.d.w.q.q.q.5.*.#.&.1.7.5.5.*.a.f.f.a.5.&.#.*.5.*.#.o.o...} ",
"} } } } } o.=.5.5.q.5.=.7.7.1.o.#.} ' { { { { { } *.a.q.q.q.q.5.5.w.f.g.j.f.q.5.5.5.<.&.&.&.7.y.5.:.5.q.5.*.&.-.q.a.u.w.q.5.=.} ",
"M M M M M v M S V V M V V m M N Z N V V V V M V m Z T D C D N Z N Z T Q R F V m m V D C m m V Z Z C C Z Z N Z T ) ) ) E T Z m k ",
"v v v b v f a a d f d r e q e l z e q e d z r 9 9 e y y a f c z f d r e e y a d d d f g d d d f h c c v v c c b V B m v b b b b ",
"< > : : > > : ; ; : : * + + & : : - & @ & & & + + & & @ + & * @ + + @ * ; - - * & O   . @ * * @ - > > : : : : > : : : : > > > < ",
"- - # & & + o o + & - : - - : ; # - - : : > : - * * - - * @ - : * - ; : - - * - - @ @ + @ * - # & * - - & % % % & & & + O O + * ",
"h d d y r a a p f d f d p d d d y u d h m N m d d f c v f p d f f c v d e e a h v h d y r p f f d d d d y y a y r p a a p y d d ",
"C N D T F D V b M V Z N M M m k m N Z Z C M m m N N D N m k M K T D N M v v M M b v k k k k v m M m v f d d i i v v c c h k v m ",
"/ { &.q.q.#.{ { } ..o.#.} { [ [ } <.7.3.<.<.-.-.#.| } / P L ] #.6.5.-.-.=.} { [ { { ..o.=.1...{ { } o.o.o.o.} ` ( ] ( ' } ` P L ",
"} { } -.1.#.#.1.1. ./ I / / / { { o.o. .` { o.#.5.-.#.o.} [ { } _ } $.-.*.} } } } ..=.=.1.+.o.} { { o.&.5.5.&.o.o.{ / { <.1.1.<.",
"b v m N Z M b M V v a p f v M Z A F Z m v z c m D D Z V N M M M k v N D T T L D M V D N M v m V D Z V m V F A m c f v D Q W F Z ",
"q 8 q y a w q e y t q t d c v b v z d a y y a s c c f f f d d c v b v v v v h f f h h f r e q e i r q 8 q d l y t 9 9 t y y r r ",
"+   X * - - - ; %       % - - - - : : * + O O + & = - : * + + @ ; , < , : * - ; * @ + + + * - - & * & O + @ @ O & $ $ * * & % % ",
"- % * > > = = : = = % . O & * % O % - : = + O O % % + & * ; > , , : - & @ @ & & & + O . O & - > : - - & O . O % * & & - - - = - ",
"d q 0 d h d d f c m n x d f f g d c c c g i e e r d d f g f z z w e e p a d d a a e q 3 9 q a z f y q 3 2 2 9 q d f c c B C B n ",
"m m m Z K Z V C C Z C m m v v v N T R D m f d d h m M M m v f f M M M M V V N Z D V m v k v C R F v d y g v V Z m M m m Z E E H ",
"/ } | o./ P / } #.{ / [ } { ] ] { ..+...{ ] / I / { } *.q.q.q.3.q.=.o.#.=.-.7.y.y.7.5.1...} o.y.a.<.} { #.<.*.1.*.<.$.| q.g.d.@.",
"{ o.-.} / / } 5.1.} { } o.o.} { [ ] [ } #.-.=.} } } &.7.u.u.5.&.5.} } o.=.-.1.5.<.o.o.<.5.1.7.q.5.&.&.7.q.7.<.<.*.7.>.:.q.h.5.{ ",
"M Z D F F D D N m V F N V M V C v m Z D Z D T T m m m V C Z m v D D V V Z V m v h d d v V Z Z V V m V A T T Q ~ ~ Q D N D T F N ",
"5 9 e d a e q q p v b z i d x x i i g g d g g g d d d d d i e 3 a f f v b V v d d r t y d z f d z l d d d d z v c c d e e r p w ",
"      X       @ > , : % % = 1 : - .   . - - %       . O O % + o + & : < 4 < : % X     O % * : : : : * - - - - : - - ; : ; @ o   "
};
